<?xml version="1.0" encoding="UTF-8"?>
<svg version="1.1" xmlns="http://www.w3.org/2000/svg" width="2704" height="2106">
<path d="M0 0 C0.93185678 -0.00327219 1.86371356 -0.00654439 2.82380843 -0.00991574 C3.85136626 -0.00843212 4.8789241 -0.00694849 5.93762004 -0.00541991 C7.03076298 -0.00777214 8.12390592 -0.01012437 9.2501744 -0.01254788 C12.95079308 -0.01925919 16.65137681 -0.01877902 20.35200107 -0.01836985 C23.01692336 -0.02166715 25.68184255 -0.0253545 28.34676337 -0.02951133 C34.92696056 -0.03884938 41.50715101 -0.0427614 48.087354 -0.0450303 C55.96591601 -0.04798924 63.84446906 -0.05668483 71.72302637 -0.06544458 C90.76780336 -0.08630258 109.8125819 -0.09676088 128.85736764 -0.10557419 C137.86421758 -0.10977873 146.87106685 -0.11500098 155.87791622 -0.12025872 C186.70002136 -0.13815001 217.52212669 -0.15314676 248.34423625 -0.16057891 C250.27976662 -0.16105367 252.21529698 -0.16152955 254.15082734 -0.16200657 C255.59062339 -0.16236113 255.59062339 -0.16236113 257.05950624 -0.16272286 C261.92278211 -0.16392408 266.78605797 -0.16513952 271.64933383 -0.16636485 C272.61447157 -0.166605 273.5796093 -0.16684515 274.57399363 -0.16709258 C305.87172531 -0.17498692 337.16941911 -0.19842097 368.46713425 -0.23092079 C401.54478091 -0.2652063 434.62240541 -0.28492886 467.70007014 -0.28822315 C471.33015995 -0.2886407 474.96024975 -0.28912026 478.59033954 -0.28964633 C479.93111762 -0.28983111 479.93111762 -0.28983111 481.29898213 -0.29001964 C495.69366604 -0.29235326 510.08830602 -0.30802226 524.48297427 -0.32848817 C538.94801652 -0.34872809 553.41300591 -0.35423217 567.8780597 -0.34471754 C576.47455747 -0.33949543 585.07087945 -0.34541349 593.66735198 -0.36725221 C599.40891233 -0.38073745 605.15035138 -0.37970351 610.89191288 -0.36685025 C614.16391349 -0.35993832 617.43550958 -0.36154114 620.70749356 -0.37641034 C624.23386217 -0.39144612 627.75934215 -0.38191308 631.28568828 -0.36618346 C632.29919912 -0.37640567 633.31270995 -0.38662787 634.35693324 -0.39715984 C641.81215147 -0.32436644 647.68054263 1.37557108 653.75870883 5.76942617 C662.62866992 15.02113241 664.98504308 25.23845074 664.73527133 37.85926992 C663.916903 48.73187786 659.69627964 58.44857296 651.73917758 66.00380117 C643.6619057 72.3465243 634.04808752 74.02307701 624.17429721 75.9062975 C597.31734461 81.09396692 569.3208226 88.46626653 548.48917758 107.12880117 C547.88460727 107.59286367 547.28003696 108.05692617 546.65714633 108.53505117 C523.21541009 126.73811498 515.11308542 161.742518 509.80167758 189.31630117 C509.49786167 190.8535082 509.49786167 190.8535082 509.18790805 192.42176992 C505.82472761 210.73273066 505.15517239 229.49684293 504.48917758 248.06630117 C504.42947788 249.68200002 504.42947788 249.68200002 504.36857212 251.33033925 C502.15289343 311.96622294 501.32028775 372.64956962 500.42667758 433.31630117 C500.41065675 434.40362759 500.41065675 434.40362759 500.39431226 435.5129202 C499.91619359 468.01566762 499.48191659 500.5184473 499.17667758 533.02333242 C499.16534856 534.22140208 499.15401954 535.41947175 499.14234722 536.65384656 C499.03680611 547.87462896 498.93634936 559.095417 498.85402095 570.31639558 C498.82419915 574.29851911 498.7910294 578.28061072 498.75728977 582.26270276 C498.73602425 584.94025118 498.71985355 587.61779697 498.70389926 590.29538137 C498.69047121 591.89936225 498.67677569 593.50334092 498.66276157 595.10731679 C498.66014285 595.80965538 498.65752412 596.51199397 498.65482605 597.23561555 C498.60591762 601.94646614 498.14025925 606.47193329 497.48917758 611.12880117 C498.79121128 611.25142324 500.09324497 611.37404531 501.43473423 611.5003832 C510.14229654 612.32350069 518.84786998 613.15776829 527.54777133 614.05848867 C571.52044876 618.56407142 615.64804588 620.97050609 659.80167758 622.81630117 C660.52896312 622.84698312 661.25624866 622.87766507 662.00557315 622.90927678 C663.07607032 622.95438956 663.07607032 622.95438956 664.1681937 623.00041372 C665.09641878 623.03958504 665.09641878 623.03958504 666.04339588 623.0795477 C674.73328163 623.43710916 683.42409949 623.7510189 692.11625181 624.04734686 C694.4069823 624.12597969 696.69762314 624.2069156 698.98826933 624.28796107 C725.86413867 625.220721 752.61997108 624.97732257 779.49692726 624.21910316 C785.17072841 624.06139964 790.84484995 623.91603418 796.51893222 623.76886159 C807.57883609 623.48000918 818.6384031 623.17983813 829.69787886 622.87507378 C838.71563359 622.62669346 847.73348336 622.38208311 856.75140941 622.14000493 C858.69367043 622.08784758 858.69367043 622.08784758 860.67516905 622.03463653 C863.30776578 621.96394128 865.94036254 621.89324741 868.57295934 621.8225549 C886.19583801 621.34892356 903.81860178 620.87123201 921.44113815 620.38502485 C922.46967078 620.35664919 922.46967078 620.35664919 923.51898186 620.32770028 C926.99214611 620.23186735 930.46530922 620.13599267 933.93847188 620.04010181 C934.97262614 620.01154996 934.97262614 620.01154996 936.0276724 619.9824213 C937.42187571 619.94392822 938.81607896 619.90543306 940.21028216 619.86693583 C961.84725195 619.26959128 983.48456691 618.6866319 1005.12223423 618.11512929 C1029.59268981 617.46878296 1054.06280041 616.81098046 1078.53252095 616.13734239 C1091.42783511 615.78255996 1104.32323157 615.43246262 1117.21902645 615.09556371 C1193.56935844 613.1277929 1193.56935844 613.1277929 1269.70804036 607.4056018 C1274.20591267 606.9579382 1278.70629792 606.53741737 1283.20663059 606.11534292 C1284.68664324 605.97543985 1286.16665048 605.83547946 1287.64665115 605.69544965 C1314.53297786 603.16093677 1342.01403872 601.11164052 1364.51652133 618.71473867 C1374.04987634 627.26763922 1377.83161704 640.45265503 1378.77042758 652.83973867 C1378.98918227 661.97274666 1377.83896753 670.67614808 1376.24308383 679.65614492 C1375.70754376 682.77229515 1375.18655895 685.88816859 1374.74699008 689.01942617 C1374.5886771 690.10078847 1374.5886771 690.10078847 1374.42716587 691.20399648 C1374.30487056 693.48741786 1374.30487056 693.48741786 1376.80167758 695.94130117 C1391.42730467 705.63619293 1409.91732787 705.65596568 1426.80167758 705.50380117 C1427.72491825 705.49914846 1428.64815891 705.49449575 1429.59937656 705.48970205 C1445.07029134 705.39867411 1460.18312928 704.47660729 1475.48917758 702.12880117 C1476.94614366 701.91156672 1478.40317898 701.69479633 1479.86027133 701.47841054 C1507.36069579 697.36745187 1533.74260818 692.99260255 1559.08341587 681.13759023 C1602.89106243 660.65483583 1650.07908038 654.07065676 1696.48917758 670.12880117 C1705.70045091 673.52330539 1714.55879346 677.65072805 1723.37540805 681.95155507 C1738.48801417 689.30519866 1752.6103174 694.01010278 1769.21842563 696.66810781 C1791.277707 700.29172134 1808.61113796 711.51875794 1822.32902133 728.99598867 C1835.60009274 748.24264196 1842.82411903 770.52095264 1838.84074008 793.94130117 C1834.71736384 808.32025422 1827.1574928 821.59320999 1813.93449008 829.07411367 C1810.50891627 830.55159758 1808.15851745 830.60741071 1804.48917758 830.12880117 C1804.37492942 823.50240784 1804.79956176 817.05599779 1805.46574008 810.46083242 C1805.49068423 806.9146071 1804.79173021 804.40506902 1803.48917758 801.12880117 C1795.67692803 799.24714106 1787.99379868 798.88369213 1779.98917758 798.81630117 C1779.04099155 798.79889882 1778.09280551 798.78149648 1777.11588657 798.76356679 C1765.52472316 798.77152297 1755.55951908 802.17193185 1745.11417758 806.94130117 C1744.05545444 807.4170458 1742.9967313 807.89279042 1741.90592563 808.38295156 C1738.42802808 809.95276054 1734.95842262 811.53997106 1731.48917758 813.12880117 C1730.24898669 813.692081 1729.00858652 814.25490026 1727.76798618 814.81727773 C1711.31683532 822.28301524 1695.15676876 830.10502855 1679.48917758 839.12880117 C1678.90881748 839.45904287 1678.32845737 839.78928457 1677.73051059 840.12953359 C1665.23633284 847.25107945 1653.29121516 855.10185139 1641.36417758 863.12880117 C1639.54546323 864.34799293 1637.72645375 865.56674457 1635.90714633 866.78505117 C1632.39263301 869.13928516 1628.87987538 871.49610078 1625.36857212 873.85511953 C1620.34032666 877.23167174 1615.30108205 880.59157035 1610.25403965 883.93995839 C1597.26599955 892.57441638 1585.50861369 902.36780737 1574.00089633 912.86317617 C1572.59750191 914.12906849 1571.1874028 915.38795647 1569.75358188 916.61927968 C1564.23310277 921.36674042 1559.06160303 926.40678709 1553.92667758 931.56630117 C1553.11521274 932.37389882 1552.3037479 933.18149648 1551.46769321 934.01356679 C1547.78559517 937.70160849 1544.19793976 941.40727965 1540.81730258 945.37489492 C1537.76267683 948.92675447 1534.44705052 951.82977227 1530.80167758 954.75380117 C1523.99410099 960.39715179 1518.42251428 966.70397611 1512.82804477 973.52284414 C1510.88758158 975.85040921 1508.84828486 978.08202921 1506.80167758 980.31630117 C1503.0041051 984.50249418 1499.41851815 988.82899131 1495.86417758 993.22255117 C1493.32252485 996.33273149 1490.72313099 999.38772331 1488.11417758 1002.44130117 C1483.86732136 1007.42751258 1479.78175544 1012.51936335 1475.75529087 1017.68446523 C1467.84579956 1027.81911169 1459.70394746 1037.76532087 1451.36759555 1047.55140859 C1448.57268207 1050.83489699 1445.82818347 1054.15323754 1443.11417758 1057.50380117 C1434.43670747 1068.14919753 1425.33285176 1078.41938836 1415.99088657 1088.4835375 C1414.88912258 1089.69062374 1413.8021333 1090.91123923 1412.72379673 1092.13929921 C1405.97727316 1099.78503925 1398.79645028 1106.97335172 1391.57780063 1114.17054921 C1389.42405236 1116.31891983 1387.27572532 1118.4726081 1385.12784946 1120.62684804 C1383.73689404 1122.01714285 1382.34562856 1123.40712753 1380.95402133 1124.79676992 C1380.32358417 1125.42923131 1379.69314701 1126.06169271 1379.04360569 1126.7133196 C1374.68628073 1131.04816542 1370.1539676 1135.12821356 1365.48917758 1139.12880117 C1364.18173826 1140.2575364 1362.87442799 1141.38642116 1361.56730258 1142.51551992 C1359.64013263 1144.17775307 1357.71241024 1145.83930185 1355.78214633 1147.49794179 C1355.1543729 1148.03999257 1354.52659946 1148.58204335 1353.87980258 1149.14051992 C1353.32324985 1149.61964833 1352.76669712 1150.09877675 1352.19327915 1150.59242421 C1351.63092563 1151.09942861 1351.06857212 1151.606433 1350.48917758 1152.12880117 C1349.84287387 1152.66730703 1349.19657016 1153.20581289 1348.53068149 1153.7606371 C1345.93936817 1156.76658535 1345.0967369 1159.79731122 1344.12101352 1163.55580312 C1343.91459735 1164.30618321 1343.70818119 1165.05656329 1343.49550998 1165.82968217 C1342.80870794 1168.33885408 1342.14127602 1170.85277214 1341.47355258 1173.36708242 C1340.98626493 1175.16170459 1340.4977297 1176.95598842 1340.00803745 1178.74995595 C1338.95671101 1182.61125461 1337.91379887 1186.4746919 1336.87736118 1190.34001333 C1335.2211451 1196.51606562 1333.54623174 1202.68694887 1331.86808383 1208.85707265 C1329.83407797 1216.33959961 1327.8039043 1223.82314245 1325.7789191 1231.30811578 C1322.34403309 1244.00187257 1318.87626009 1256.68624708 1315.37980258 1269.36317617 C1315.13526466 1270.24999011 1314.89072673 1271.13680406 1314.63877857 1272.05049115 C1312.18587214 1280.94369223 1309.72704652 1289.835247 1307.26314342 1298.72540742 C1306.01744153 1303.22034588 1304.77274165 1307.7155615 1303.52824008 1312.21083242 C1303.28146392 1313.10176658 1303.03468776 1313.99270074 1302.78043354 1314.91063291 C1299.39702148 1327.1319505 1296.07073353 1339.36754088 1292.78443515 1351.6153124 C1281.33905561 1394.26524212 1269.33023553 1436.05061402 1252.89884555 1477.07753164 C1250.61292632 1482.78988568 1248.4124443 1488.53147206 1246.24308383 1494.28895742 C1201.94294057 1611.68033089 1201.94294057 1611.68033089 1172.48917758 1643.12880117 C1171.87332798 1643.79089589 1171.25747837 1644.45299062 1170.62296665 1645.13514882 C1134.59674106 1683.52113417 1087.79567635 1695.73516877 1036.48917758 1698.12880117 C1030.45981208 1698.30017734 1024.42742859 1698.27051898 1018.39620197 1698.26581556 C1016.59221127 1698.26807634 1014.78822107 1698.27076923 1012.98423159 1698.27385139 C1008.04058315 1698.28103989 1003.09694996 1698.2820807 998.153297 1698.28207417 C992.76981335 1698.28314856 987.38633633 1698.28994542 982.00285637 1698.29598087 C971.33200462 1698.30702681 960.66115615 1698.31269766 949.99029968 1698.31668975 C937.20680407 1698.32170919 924.42331479 1698.33243789 911.63982293 1698.34317148 C880.75275641 1698.36876526 849.8656875 1698.38384807 818.97861343 1698.39668195 C808.75145008 1698.40093466 798.52428691 1698.40550233 788.29712379 1698.41026527 C734.69738627 1698.43516877 681.09764821 1698.45722591 627.49790616 1698.46945565 C623.57739944 1698.47035301 619.65689273 1698.47126771 615.73638602 1698.47218338 C614.95869723 1698.472365 614.18100843 1698.47254661 613.37975332 1698.47273373 C605.50091253 1698.47457635 597.62207175 1698.47644223 589.74323097 1698.47833182 C588.16352352 1698.47870986 586.58381607 1698.47908616 585.00410862 1698.4794607 C534.24029585 1698.4914977 483.47651731 1698.52120307 432.71272067 1698.56287581 C396.22240211 1698.59282232 359.73209056 1698.62045145 323.24176013 1698.63015348 C322.11637717 1698.63045431 322.11637717 1698.63045431 320.96825919 1698.63076122 C304.49940571 1698.63511153 288.03055227 1698.63805746 271.5616983 1698.63968773 C264.93577148 1698.64036408 258.30984468 1698.64121959 251.68391788 1698.6421259 C250.95876719 1698.64222 250.2336165 1698.6423141 249.48649154 1698.64241104 C226.12484283 1698.64552361 202.76323771 1698.66403387 179.40160471 1698.69047587 C155.22529641 1698.71775 131.04904842 1698.72715063 106.87272581 1698.71582125 C92.9307692 1698.70983168 78.98898245 1698.71782339 65.04705145 1698.74565209 C55.7414728 1698.76285619 46.43601049 1698.76199564 37.13042946 1698.7462844 C31.82385896 1698.73784366 26.51761351 1698.73739256 21.21107265 1698.75889586 C16.38437061 1698.77829825 11.55825437 1698.77471691 6.73156834 1698.75274237 C4.99563369 1698.74887579 3.25965501 1698.75340453 1.52377191 1698.76732939 C-8.56704354 1698.84303668 -17.5269087 1698.63509513 -25.36887081 1691.41905715 C-34.14850095 1682.14281874 -35.97495102 1670.50087627 -35.76082242 1658.14833242 C-34.65747135 1636.19716293 -29.85242291 1608.71828304 -14.51082242 1592.12880117 C-13.78894742 1591.34505117 -13.06707242 1590.56130117 -12.32332242 1589.75380117 C-3.85320348 1584.85995467 7.18868202 1584.26586552 16.75230014 1582.73945791 C49.65555776 1577.4343923 84.79471852 1570.90343534 110.48917758 1548.12880117 C111.53331821 1547.22581289 111.53331821 1547.22581289 112.59855258 1546.30458242 C137.36144621 1523.41330285 141.11454803 1483.93384844 143.55167758 1452.37880117 C143.63222385 1451.37357412 143.71277011 1450.36834707 143.79575717 1449.33265859 C146.84257415 1411.16205269 148.40515063 1372.89600607 149.61417758 1334.62880117 C149.65278903 1333.41603505 149.69140049 1332.20326894 149.73118198 1330.95375234 C151.09801708 1287.20609073 151.68326257 1243.43772067 152.04386508 1199.67176992 C152.05422715 1198.44443757 152.06458922 1197.21710522 152.07526529 1195.95258099 C152.65857293 1126.70368969 152.64209538 1057.45378477 152.61863944 988.20292704 C152.61421078 974.88093347 152.61496585 961.55894886 152.61954868 948.23695546 C152.6489436 860.22289187 152.45234229 772.21317944 150.67310703 558.18566304 C150.61062398 553.377485 150.55071935 548.56927599 150.49088657 543.76106435 C149.83370529 491.12596197 148.98817799 438.49440339 148.03626144 385.86385137 C147.98983889 383.29045997 147.9437485 380.71706286 147.89778507 378.14366323 C147.24259687 341.47521301 146.48252205 304.81219472 145.45011508 268.15223867 C145.42916341 267.40423828 145.40821174 266.65623789 145.38662517 265.88557082 C146.47700524 180.76904737 146.47700524 180.76904737 109.25480258 107.98036367 C87.56712997 89.56767517 58.64246463 82.86519934 31.30167758 78.15223867 C30.30598758 77.97988195 29.31029758 77.80752523 28.28443515 77.62994558 C23.24425075 76.7620055 18.20157047 75.91771725 13.15177524 75.10756093 C-10.06667562 71.28393406 -10.06667562 71.28393406 -17.97566617 61.44911367 C-25.89497793 49.47946688 -27.62422059 35.68371548 -24.82722867 21.71473867 C-21.64434189 12.33776933 -16.42242786 5.55610195 -7.51082242 1.12880117 C-4.67305634 0.18287914 -2.93929195 0.00269865 0 0 Z M256.48917758 582.12880117 C257.9368938 587.219412 260.175492 591.27040998 262.98917758 595.69130117 C263.43060092 596.39021474 263.87202426 597.08912832 264.32682407 597.80922109 C268.66194817 604.56973991 273.45721099 610.87745657 278.48917758 617.12880117 C279.19429477 618.02727773 279.89941196 618.92575429 280.62589633 619.85145742 C287.13458144 628.02039861 294.26915565 635.59180266 301.48917758 643.12880117 C301.99271762 643.65570546 302.49625766 644.18260976 303.01505649 644.72548085 C308.66239608 650.60210513 314.52602751 655.96186245 320.90324008 661.03505117 C323.19086881 662.88727019 325.33811665 664.80977793 327.48917758 666.81630117 C356.63013587 692.83866567 392.82194188 712.72753485 427.48917758 730.12880117 C428.46467563 730.62122304 429.44017368 731.11364492 430.44523227 731.62098867 C449.15484411 741.01146282 468.539516 748.82313924 488.20402133 755.98036367 C489.33831577 756.39366933 490.4726102 756.806975 491.64127719 757.23280507 C494.4685422 758.27885799 494.4685422 758.27885799 497.48917758 758.12880117 C497.45958013 759.11636592 497.42998268 760.10393068 497.39948833 761.12142164 C496.36889289 796.49769383 496.3397499 831.86702924 496.35387813 867.25432424 C496.35620622 873.26291307 496.35642879 879.27149908 496.35536182 885.28008825 C496.35513197 886.5908059 496.35513197 886.5908059 496.35489748 887.92800271 C496.35457749 889.70767747 496.35425327 891.48735224 496.35392489 893.26702701 C496.35109022 909.87472009 496.35431479 926.48240763 496.35972525 943.0900998 C496.36409799 956.92803575 496.3634441 970.76596307 496.35880649 984.60389882 C496.33315731 1063.46559787 496.43086695 1142.32507347 496.90308988 1221.1855405 C496.92904747 1225.52712387 496.95406806 1229.86871202 496.97880486 1234.2103025 C497.30278792 1304.28083751 497.30278792 1304.28083751 499.36417758 1374.31630117 C499.42570514 1375.78957875 499.42570514 1375.78957875 499.48847568 1377.29261953 C500.0792885 1391.25440818 500.86316762 1405.19491326 501.92667758 1419.12880117 C502.00991275 1420.25963628 502.00991275 1420.25963628 502.09482944 1421.41331655 C502.69595282 1429.42796211 503.57525174 1437.33888478 504.94230258 1445.26161367 C505.05984394 1445.94940908 505.17738529 1446.63720449 505.2984885 1447.34584218 C509.45034906 1470.07834611 523.26193755 1487.34747063 541.70011508 1500.40223867 C579.87702693 1526.41129879 629.11032479 1532.31791925 674.11417758 1535.87880117 C675.22786716 1535.9675501 675.22786716 1535.9675501 676.36405551 1536.05809194 C704.38768858 1538.24244505 732.46564784 1538.40962373 760.557495 1538.66163427 C763.89588407 1538.69158563 767.23426345 1538.72248938 770.57264316 1538.75346547 C805.40883983 1539.07249237 840.2453196 1539.26044688 875.08293521 1539.31002599 C878.51277646 1539.31623079 881.94258829 1539.32611288 885.37241733 1539.33708364 C981.13097844 1539.63514733 981.13097844 1539.63514733 1062.48917758 1494.12880117 C1062.99835727 1493.65072011 1063.50753696 1493.17263906 1064.03214633 1492.6800707 C1083.66535453 1474.20690064 1095.47297719 1449.94452842 1107.48917758 1426.12880117 C1108.03445102 1425.04905019 1108.57972446 1423.96929921 1109.14152133 1422.85682851 C1116.42577763 1408.33247567 1123.12208796 1393.62931473 1129.36417758 1378.62880117 C1129.6650629 1377.90673482 1129.96594821 1377.18466848 1130.27595127 1376.44072133 C1132.38883924 1371.35322506 1134.44828251 1366.24554864 1136.48917758 1361.12880117 C1136.79259099 1360.3689325 1137.09600439 1359.60906383 1137.40861213 1358.82616884 C1142.95509497 1344.84208495 1147.55742239 1330.69099115 1151.83292758 1316.27333242 C1152.49349439 1314.06593133 1153.15468021 1311.8587154 1153.81644809 1309.65167409 C1155.18577817 1305.07913822 1156.55004182 1300.50513579 1157.91007602 1295.92982656 C1159.65568897 1290.05770482 1161.4107776 1284.18846864 1163.16913211 1278.32015115 C1164.52692685 1273.78717462 1165.88164631 1269.25328429 1167.23522556 1264.71904737 C1167.88221307 1262.55186326 1168.52974275 1260.38484095 1169.17782199 1258.21798307 C1170.07550281 1255.21359951 1170.96946367 1252.20813615 1171.86222446 1249.2022875 C1172.13017826 1248.30739614 1172.39813205 1247.41250478 1172.67420566 1246.4904955 C1172.915069 1245.67667913 1173.15593235 1244.86286275 1173.40409458 1244.02438527 C1173.61493434 1243.31606966 1173.82577411 1242.60775405 1174.04300296 1241.87797433 C1174.57156537 1240.1066734 1174.57156537 1240.1066734 1174.48917758 1238.12880117 C1173.44165317 1238.27502919 1172.39412876 1238.42125722 1171.31486118 1238.5719164 C1167.36058337 1239.12264358 1163.40547646 1239.66721462 1159.45011508 1240.2101 C1157.75099637 1240.4441459 1156.05209481 1240.67977481 1154.3534354 1240.91713125 C1138.85552165 1243.08080102 1123.59613009 1244.34382776 1107.92667758 1244.31630117 C1107.22919406 1244.31536458 1106.53171054 1244.314428 1105.81309116 1244.31346303 C1050.70238173 1244.15412908 995.90427788 1227.81083541 955.48917758 1189.12880117 C954.70671665 1188.40950429 953.92425571 1187.69020742 953.11808383 1186.94911367 C947.76884524 1181.8651973 943.17772826 1176.40384999 938.67667758 1170.56630117 C938.13744663 1169.87020742 937.59821567 1169.17411367 937.04264438 1168.45692617 C932.63399528 1162.62160728 928.01329401 1156.39774275 926.48917758 1149.12880117 C929.86015142 1147.63059057 931.69359878 1147.12880117 935.48917758 1147.12880117 C937.26237094 1147.96400625 937.26237094 1147.96400625 939.07902133 1149.14833242 C939.76963657 1149.58814443 940.4602518 1150.02795644 941.17179477 1150.48109609 C942.28796176 1151.2038976 942.28796176 1151.2038976 943.42667758 1151.94130117 C966.61161107 1166.45673574 990.52012942 1177.01731215 1017.48917758 1182.12880117 C1018.33947544 1182.2925121 1019.18977329 1182.45622304 1020.06583774 1182.62489492 C1095.45919948 1196.33535409 1183.7683975 1175.24098347 1246.52726352 1132.49305898 C1254.85739433 1126.70052899 1262.59207806 1120.32610072 1270.02042758 1113.41005117 C1272.06961841 1111.51649509 1274.15658039 1109.72282257 1276.30167758 1107.94130117 C1287.34467293 1098.30130933 1296.70913706 1086.81066454 1305.48917758 1075.12880117 C1305.93325962 1074.54695058 1306.37734165 1073.9651 1306.83488071 1073.36561757 C1333.42979178 1038.49567123 1356.3176832 996.46821376 1368.48917758 954.12880117 C1368.15917758 953.13880117 1367.82917758 952.14880117 1367.48917758 951.12880117 C1367.03929477 951.69985585 1366.58941196 952.27091054 1366.12589633 952.85926992 C1349.77504192 973.46986596 1332.31150518 993.90809293 1311.48917758 1010.12880117 C1310.39931699 1011.0073759 1309.31084066 1011.88766979 1308.22355258 1012.76942617 C1259.56105399 1052.01426755 1199.80162014 1068.50449643 1137.85148227 1062.25380117 C1127.26326377 1061.0272926 1116.84549059 1059.18918818 1106.43839633 1056.89833242 C1103.40304341 1056.25222467 1100.60707831 1055.94832388 1097.48917758 1056.12880117 C1097.48917758 1055.46880117 1097.48917758 1054.80880117 1097.48917758 1054.12880117 C1098.06611362 1053.85890371 1098.64304965 1053.58900625 1099.2374686 1053.31093007 C1101.52149248 1052.11183611 1103.45930799 1050.76862485 1105.51652133 1049.21473867 C1106.29833774 1048.62644277 1107.08015415 1048.03814687 1107.88566196 1047.43202382 C1108.72419712 1046.79571035 1109.56273227 1046.15939687 1110.42667758 1045.50380117 C1111.30259555 1044.8429955 1112.17851352 1044.18218984 1113.08097446 1043.50135976 C1120.46387043 1037.92483333 1127.82290998 1032.31666265 1135.17667758 1026.70179921 C1139.7426561 1023.21594926 1144.32009875 1019.74829416 1148.92667758 1016.31630117 C1174.74212452 997.00035855 1199.34286194 976.26663123 1222.23917758 953.56630117 C1223.11453159 952.70399892 1223.98988559 951.84169667 1224.89176548 950.95326406 C1230.12434407 945.72761275 1234.93292489 940.31450308 1239.55509555 934.54213125 C1241.6893758 931.87899565 1243.92898907 929.32140098 1246.17667758 926.75380117 C1250.85275549 921.16459939 1254.93917555 915.24634197 1258.98917758 909.19130117 C1259.90703037 907.82255849 1259.90703037 907.82255849 1260.84342563 906.42616445 C1263.50037132 902.39804833 1265.80604748 898.67154522 1267.48917758 894.12880117 C1262.4204915 896.92081873 1257.73725374 899.99061077 1253.05167758 903.37880117 C1228.08167369 921.18667168 1202.21892624 937.73080776 1175.36027133 952.54042226 C1172.49856877 954.12360567 1169.64991241 955.72857233 1166.80167758 957.33583242 C1122.34848617 982.19004547 1073.23202146 1000.77664351 1023.11417758 1009.87880117 C1022.02258335 1010.07755849 1020.93098911 1010.27631582 1019.80631626 1010.48109609 C1003.859769 1013.25187845 988.23903275 1014.4609249 972.05875766 1014.38954335 C969.18964439 1014.3788495 966.32116238 1014.38949694 963.45206821 1014.40223867 C925.03343275 1014.43261805 888.62260746 1007.06063008 855.48917758 987.12880117 C861.98570984 984.08887864 868.73904814 982.19339435 875.61417758 980.19130117 C915.25293577 968.4736125 954.91624526 955.94092709 992.12491977 937.76747304 C995.57161977 936.088645 999.03213349 934.44167208 1002.49699008 932.80067617 C1027.09666139 921.10806354 1051.39923841 908.80779548 1075.02042758 895.23817617 C1080.805148 891.92366512 1086.67491616 888.77627661 1092.55167758 885.62880117 C1103.13330861 879.94073619 1113.49468516 873.93270827 1123.79142368 867.74598867 C1126.566436 866.08248807 1129.34918455 864.4325734 1132.13370883 862.78505117 C1133.93985238 861.7123937 1135.74584774 860.63948668 1137.55167758 859.56630117 C1138.79256137 858.83334829 1138.79256137 858.83334829 1140.05851352 858.08558828 C1144.10846219 855.66651693 1147.8909512 853.20575532 1151.48917758 850.12880117 C1145.35420311 851.35405819 1139.55631741 853.01257187 1133.68058383 855.14833242 C1131.969208 855.75832013 1130.25769461 856.36792203 1128.54606235 856.97718984 C1127.65251041 857.29706868 1126.75895847 857.61694753 1125.8383292 857.94651967 C1088.90696922 871.13031104 1051.43136948 882.25030181 1013.48917758 892.12880117 C1012.28158786 892.44334249 1012.28158786 892.44334249 1011.04960239 892.76423818 C956.09326894 907.02714049 900.10669271 916.72646448 843.48917758 921.12880117 C842.17401157 921.23192617 840.85884555 921.33505117 839.50382602 921.44130117 C826.18508751 922.39458847 812.83568781 922.37125129 799.48917758 922.37880117 C798.25062015 922.37980825 797.01206272 922.38081533 795.73597324 922.38185292 C776.1346794 922.37109819 756.92823295 921.70962923 737.48917758 919.12880117 C736.41506626 918.9948998 735.34095493 918.86099843 734.23429477 918.72303945 C678.31244596 911.59235548 615.52411717 891.61846072 579.25870883 845.88270742 C578.54948276 844.9901122 577.84025669 844.09751699 577.10953891 843.17787343 C576.57481967 842.50167958 576.04010044 841.82548574 575.48917758 841.12880117 C576.49987308 841.13879392 576.49987308 841.13879392 577.53098667 841.14898854 C677.91451441 842.09286137 776.85123984 831.74342811 931.91074741 797.76625234 C934.48980663 797.12864565 937.06975303 796.4947295 939.64982212 795.86122304 C978.60741485 786.27144976 1017.25277453 775.28242959 1055.48917758 763.12880117 C1055.48917758 762.79880117 1055.48917758 762.46880117 1055.48917758 762.12880117 C1046.72702099 762.74617732 1038.0117612 763.57815706 1029.28605258 764.58192617 C1026.70297176 764.87284464 1024.11979671 765.16292732 1021.53654087 765.4522875 C1020.86628816 765.52743864 1020.19603546 765.60258979 1019.50547206 765.68001825 C994.90334878 768.43401242 970.2935472 770.89099702 945.60973728 772.78747731 C943.67467288 772.936638 941.73981907 773.08852285 939.80497348 773.2404955 C900.82756603 776.27635029 861.9124702 777.51443526 822.82143772 777.44685918 C819.49270696 777.44120093 816.16398133 777.43839206 812.83524692 777.43577749 C780.62920877 777.39902037 748.58585128 777.02065379 716.48917758 774.12880117 C714.43873264 773.94996649 712.38827659 773.77125916 710.3378104 773.59266835 C641.90168947 767.54373497 573.14313537 756.80093717 507.48917758 736.12880117 C506.83105075 735.92210805 506.17292392 735.71541494 505.49485385 735.50245839 C476.332583 726.32343976 448.08041349 715.34406621 420.48917758 702.12880117 C419.5238309 701.67070058 418.55848423 701.2126 417.56388462 700.74061757 C381.1742288 683.38722129 346.27901655 661.213368 315.48917758 635.12880117 C314.47597446 634.29993398 313.46277133 633.47106679 312.41886508 632.61708242 C297.04330247 619.912275 282.34484106 605.67526866 270.59074008 589.51942617 C268.32624914 586.94346249 266.44954324 585.76688353 263.36417758 584.31630117 C262.49534946 583.89735585 261.62652133 583.47841054 260.73136508 583.04676992 C258.58450002 582.00250652 258.58450002 582.00250652 256.48917758 582.12880117 Z " fill="#FEFEFE" transform="translate(123.51082241535187,200.87119883298874)"/>
<path d="M0 0 C3.55799763 0.01312947 7.11598231 0.00855915 10.6739974 0.00629318 C16.81735971 0.00473097 22.96062537 0.01402893 29.10396338 0.03100669 C37.98584586 0.05553655 46.86768229 0.06321615 55.74959497 0.06697067 C70.16486712 0.0735134 84.58008792 0.09341497 98.99533224 0.1218785 C112.98654059 0.14947579 126.97773493 0.17068151 140.96896505 0.18340194 C141.83345174 0.18419011 142.69793843 0.18497828 143.58862169 0.18579034 C147.92611492 0.18970585 152.26360825 0.19349688 156.60110164 0.19722605 C192.50370692 0.22825401 228.40625384 0.28102989 264.3088088 0.34819686 C266.62312691 7.65633621 268.93742751 14.9644811 271.25170857 22.27263218 C272.32752226 25.66988812 273.40334095 29.06714248 274.47917318 32.46439254 C280.25679723 50.70892069 286.03334506 68.95378913 291.8087815 87.1990099 C296.97161169 103.50860099 302.13816373 119.8169983 307.3166213 136.12163436 C307.52483826 136.77722272 307.73305521 137.43281108 307.94758177 138.10826576 C309.00057379 141.42363896 310.05362121 144.73899457 311.10669088 148.0543431 C311.31534403 148.71124004 311.52399717 149.36813697 311.73897314 150.04493988 C312.16060815 151.37235645 312.58224664 152.69977191 313.00388861 154.02718627 C319.49455886 174.46158421 325.96283246 194.90295371 332.41357565 215.3499974 C338.35761721 234.18943669 344.32716572 253.0206736 350.3088088 271.84819686 C357.03159231 293.00849698 363.73334409 314.17530473 370.41330099 335.34917343 C376.35743761 354.18888622 382.32707808 373.02039775 388.3088088 391.84819686 C394.66106603 411.84224685 400.99694091 431.84134886 407.3088088 451.84819686 C413.60105825 471.79215241 419.91519095 491.72905491 426.2463088 511.66069686 C426.66784887 512.98781454 427.08938818 514.31493246 427.51092672 515.64205062 C427.71958207 516.29895417 427.92823742 516.95585771 428.14321566 517.63266742 C429.19585126 520.94668471 430.24844531 524.2607152 431.3009963 527.57475936 C431.50925858 528.23048368 431.71752085 528.886208 431.9320941 529.56180274 C436.58652635 544.21722556 441.23019054 558.87605229 445.8713088 573.53569686 C446.45682516 575.38505844 446.45682516 575.38505844 447.05417013 577.27178085 C450.1985051 587.20341248 453.34223755 597.1352348 456.48593283 607.06706893 C459.23910439 615.76503582 461.99255131 624.46291547 464.7463088 633.16069686 C465.13633078 634.39263778 465.52635275 635.6245787 465.92819357 636.89385116 C470.38535755 650.97157417 474.84672795 665.04794865 479.3166213 679.12163436 C479.52483826 679.77722272 479.73305521 680.43281108 479.94758177 681.10826576 C481.00057379 684.42363896 482.05362121 687.73899457 483.10669088 691.0543431 C483.31534403 691.71124004 483.52399717 692.36813697 483.73897314 693.04493988 C484.16060815 694.37235645 484.58224664 695.69977191 485.00388861 697.02718627 C491.49455886 717.46158421 497.96283246 737.90295371 504.41357565 758.3499974 C510.35761721 777.18943669 516.32716572 796.0206736 522.3088088 814.84819686 C529.03159231 836.00849698 535.73334409 857.17530473 542.41330099 878.34917343 C548.35743761 897.18888622 554.32707808 916.02039775 560.3088088 934.84819686 C566.66106603 954.84224685 572.99694091 974.84134886 579.3088088 994.84819686 C585.60105825 1014.79215241 591.91519095 1034.72905491 598.2463088 1054.66069686 C598.66784887 1055.98781454 599.08938818 1057.31493246 599.51092672 1058.64205062 C599.71958207 1059.29895417 599.92823742 1059.95585771 600.14321566 1060.63266742 C601.19585126 1063.94668471 602.24844531 1067.2607152 603.3009963 1070.57475936 C603.50925858 1071.23048368 603.71752085 1071.886208 603.9320941 1072.56180274 C608.58652635 1087.21722556 613.23019054 1101.87605229 617.8713088 1116.53569686 C618.26165304 1117.76860458 618.65199728 1119.00151229 619.05417013 1120.27178085 C622.1985051 1130.20341248 625.34223755 1140.1352348 628.48593283 1150.06706893 C629.27094678 1152.54712701 630.05598097 1155.02717869 630.84103537 1157.50722396 C631.62758095 1159.99207997 632.41403912 1162.47696366 633.20041037 1164.96187484 C635.16519865 1171.16978377 637.13196178 1177.37705448 639.10275412 1183.58306015 C642.81699936 1195.28437007 646.51514081 1206.98977329 650.15760946 1218.71359909 C663.02343638 1260.20280516 663.02343638 1260.20280516 678.74142599 1300.67778671 C680.33290257 1304.40461831 681.87974516 1308.1469066 683.4103713 1311.89897811 C705.10866317 1365.01339074 727.78179764 1418.9066244 756.69992208 1468.58354843 C758.3285326 1471.38208947 759.9418183 1474.18912155 761.55490255 1476.99663436 C787.11378103 1521.17829603 819.12231377 1564.1304112 870.40158224 1578.59868515 C881.64966973 1581.49855318 893.17737689 1583.52298708 904.67990255 1585.10991561 C914.3192181 1586.45341447 920.84558609 1587.73783916 927.11740255 1595.62163436 C942.16314247 1617.1710167 947.88925014 1650.69299747 943.6603713 1676.27007186 C941.09147814 1684.74522367 936.71706369 1691.66340376 928.86496699 1695.93606877 C923.16146602 1698.72134678 918.3131241 1699.05045942 912.04309034 1698.97740257 C910.94663602 1698.98466977 909.8501817 1698.99193698 908.72050148 1698.9994244 C905.05043798 1699.0176559 901.38142187 1699.00032631 897.71136618 1698.98311508 C895.05203514 1698.98887697 892.39277603 1698.99661361 889.73346484 1699.0067513 C883.95378715 1699.02478201 878.17434311 1699.02427925 872.39465475 1699.0115155 C863.80015073 1698.9925872 855.20584347 1699.00227982 846.61134073 1699.01755703 C831.261378 1699.04387713 815.91151936 1699.04160741 800.56154674 1699.02716247 C787.12979739 1699.01458467 773.69808618 1699.0113012 760.26633215 1699.01727569 C759.37537322 1699.01765762 758.48441429 1699.01803954 757.5664566 1699.01843304 C753.94978559 1699.01998973 750.3331146 1699.02158173 746.71644363 1699.02323186 C712.79157593 1699.03852592 678.86677455 1699.02466057 644.94191709 1698.99774737 C614.79774002 1698.97401534 584.65366855 1698.976146 554.5094924 1699.00005233 C520.64365729 1699.0268204 486.77788075 1699.03744536 452.91203654 1699.02199101 C449.30257568 1699.02038742 445.69311481 1699.01882322 442.08365393 1699.01727569 C441.19490941 1699.0168803 440.30616488 1699.01648492 439.39048871 1699.01607755 C425.96536673 1699.01038848 412.54028707 1699.01704464 399.11517096 1699.02967346 C383.8528496 1699.0439589 368.59064863 1699.04041864 353.3283423 1699.01326974 C344.78489916 1698.99857412 336.24171664 1698.99765011 327.69828019 1699.01650061 C321.99358377 1699.02770041 316.28909657 1699.02075701 310.58443118 1698.99897676 C307.33274518 1698.98706794 304.08168138 1698.98578599 300.82999371 1699.00100668 C297.32710894 1699.01614965 293.82565437 1699.0006806 290.32284498 1698.97740257 C289.3135211 1698.9891084 288.30419722 1699.00081423 287.26428777 1699.01287478 C279.15116878 1698.90466728 274.4262084 1696.32060113 268.6213088 1690.78569686 C258.56115235 1677.69044236 259.10199991 1660.42959583 261.1291213 1644.90410507 C263.91247218 1626.00359808 268.00959987 1604.58739994 281.1213088 1589.94975936 C287.2825679 1585.43883753 295.66775142 1585.68014486 302.9963088 1584.97319686 C328.7903011 1582.27449195 358.50238735 1577.78865822 378.3088088 1559.34819686 C378.8450588 1558.85319686 379.3813088 1558.35819686 379.9338088 1557.84819686 C391.85145994 1545.43397693 394.85744716 1528.01299707 394.72433615 1511.4968785 C393.94307047 1484.57676398 382.5838134 1459.00093592 372.57663107 1434.41411483 C363.43951531 1411.90714199 355.11236813 1389.40363193 348.00805807 1366.1746434 C346.90199059 1362.56774489 345.78256278 1358.96499412 344.66427755 1355.36186874 C343.031423 1350.0976177 341.40188923 1344.83236381 339.77694654 1339.56566513 C336.88343037 1330.18865367 333.96210883 1320.82059103 331.02365255 1311.45757186 C330.80815882 1310.77088865 330.59266508 1310.08420543 330.37064123 1309.37671363 C329.28500273 1305.91777143 328.19887517 1302.45898305 327.11251974 1299.00026596 C325.14297685 1292.72888321 323.17767864 1286.45616991 321.2120719 1280.18355262 C320.55533628 1278.08786218 319.89850482 1275.9922018 319.24163961 1273.89655197 C316.40892097 1264.85907582 313.57707479 1255.82132652 310.74556684 1246.78347099 C308.78766038 1240.53415669 306.82951902 1234.28491599 304.8713088 1228.03569686 C304.65574961 1227.34776927 304.44019041 1226.65984169 304.21809912 1225.95106781 C299.08613836 1209.57340609 293.94924146 1193.19731015 288.8009963 1176.82475936 C288.57215435 1176.0969835 288.3433124 1175.36920764 288.10753584 1174.61937797 C286.95038617 1170.93941874 285.79316984 1167.25948047 284.63592672 1163.57955062 C284.29200951 1162.48592397 284.29200951 1162.48592397 283.94114447 1161.37020385 C283.4778435 1159.89695374 283.01453834 1158.42370494 282.551229 1156.95045745 C275.57517886 1134.76722855 268.62361874 1112.57648744 261.6939826 1090.37871826 C254.92438031 1068.69384313 248.12523449 1047.01839745 241.3088088 1025.34819686 C234.08046852 1002.36847241 226.87486406 979.38182387 219.69641638 956.38646591 C213.29098348 935.8678741 206.86124493 915.35704288 200.4126296 894.85198104 C199.01356026 890.40324396 197.61496806 885.95435699 196.21652365 881.50542343 C195.99036116 880.78593143 195.76419867 880.06643943 195.53118277 879.32514465 C194.4099603 875.75815452 193.28878341 872.19115006 192.16763449 868.62413681 C191.73048204 867.23332817 191.29332792 865.84252006 190.85617208 864.45171249 C190.64270887 863.77257167 190.42924566 863.09343086 190.20931387 862.39371002 C188.76769014 857.80737568 187.32524089 853.22130163 185.88253927 848.63530624 C184.05994031 842.84089247 182.24014921 837.04560475 180.42273092 831.24956405 C179.76927348 829.16721165 179.11481172 827.08517411 178.45929098 825.0034703 C177.57577811 822.197319 176.6957259 819.39010671 175.8166213 816.58257186 C175.55844122 815.76544723 175.30026114 814.9483226 175.03425741 814.10643661 C173.3088088 808.57657743 173.3088088 808.57657743 173.3088088 806.34819686 C182.93846961 804.13549907 197.92025509 803.51074074 206.61740255 808.73491561 C209.35772788 811.34866702 209.32185573 813.55368588 209.5588088 817.28569686 C209.46292291 825.68256156 206.90212875 833.81933602 203.3088088 841.34819686 C217.92214561 841.09624278 232.1588281 830.93150102 242.0588088 820.78569686 C253.63286127 806.54507349 258.03578526 788.38767719 256.3088088 770.34819686 C252.71056354 744.84171655 240.17175871 718.23882644 219.51584005 702.17632186 C205.20105593 691.78459064 190.37080628 686.21604165 172.89865255 683.68804061 C161.34648413 682.01403353 151.09369911 678.80136294 140.3088088 674.34819686 C138.6691213 673.71204452 138.6691213 673.71204452 136.9963088 673.06304061 C136.1094338 672.68276718 135.2225588 672.30249374 134.3088088 671.91069686 C133.5869338 671.60261093 132.8650588 671.29452499 132.1213088 670.97710311 C126.28019644 665.72765515 124.80643014 653.624401 122.46896505 646.19194686 C121.99047984 644.67587219 121.51182259 643.15985179 121.03300619 641.64388168 C119.74491865 637.56356058 118.45966027 633.48235354 117.17504263 629.40093887 C116.09367187 625.96639317 115.01070027 622.53235303 113.92779684 619.09829032 C106.16193483 594.46949433 98.44181767 569.82651967 90.75045919 545.17436874 C84.62961587 525.55732101 78.4753486 505.95092456 72.3088088 486.34819686 C65.28581118 464.02200876 58.28327064 441.68959466 51.3088088 419.34819686 C43.33159593 393.79526515 35.31940899 368.25345043 27.28463888 342.71855819 C26.37727541 339.83470522 25.46997429 336.95083263 24.56271505 334.06694686 C24.34098434 333.36217901 24.11925364 332.65741115 23.89080381 331.93128669 C20.71458762 321.83445433 17.55201372 311.73343866 14.39865255 301.62944686 C13.64317084 299.21121768 12.88763855 296.7930043 12.13205099 294.37480819 C10.74009562 289.91993107 9.35199876 285.46387679 7.96603537 281.00713241 C7.35519823 279.05175845 6.74420594 277.09643294 6.13302755 275.14116561 C5.85812994 274.25324325 5.58323233 273.36532089 5.30000448 272.45049179 C4.35622815 268.59860641 4.35622815 268.59860641 2.3088088 265.34819686 C1.97532431 266.56177619 1.97532431 266.56177619 1.63510275 267.79987228 C-18.29084218 340.3093272 -38.27593323 412.80233033 -58.33157206 485.27602279 C-64.19464203 506.46301759 -70.05376908 527.65107441 -75.8943162 548.84429061 C-76.14659983 549.75969179 -76.39888346 550.67509296 -76.65881205 551.61823356 C-77.67073017 555.28995218 -78.68261538 558.96167988 -79.69448709 562.63341129 C-80.44337292 565.3508441 -81.192276 568.06827215 -81.9411912 570.78569686 C-82.18515635 571.67092655 -82.42912149 572.55615623 -82.68047953 573.46821105 C-93.60794264 613.1160807 -104.6348139 652.73610584 -115.6911912 692.34819686 C-134.07508297 694.65957668 -134.07508297 694.65957668 -141.88259745 694.64897811 C-142.64185022 694.65326324 -143.401103 694.65754837 -144.18336344 694.66196334 C-145.75651937 694.66759762 -147.3297013 694.66829014 -148.90286112 694.66387069 C-151.25659745 694.66069294 -153.60909123 694.68436994 -155.96267557 694.70952499 C-185.79041286 694.83457829 -185.79041286 694.83457829 -195.6911912 686.34819686 C-197.32024302 682.07193582 -196.25261017 678.51598359 -195.2536912 674.16069686 C-191.90684086 658.00997926 -192.30148554 641.47434706 -200.85134745 626.94585311 C-205.91052089 619.80285876 -212.25723186 615.31417891 -220.0349412 611.58257186 C-220.67786112 611.26787948 -221.32078104 610.9531871 -221.98318338 610.62895858 C-223.54980199 609.86312086 -225.12011925 609.10485677 -226.6911912 608.34819686 C-217.76470615 578.33977658 -208.80299765 548.3421544 -199.80053186 518.35644424 C-198.19510315 513.00859381 -196.59026705 507.66056554 -194.98538065 502.31255233 C-192.61054664 494.39895807 -190.23556806 486.48540723 -187.86039877 478.5719136 C-181.72553837 458.1319101 -175.59354098 437.69104791 -169.46167231 417.25014675 C-167.04979234 409.21009143 -164.63763624 401.17011898 -162.22537088 393.13017929 C-155.62413315 371.12829835 -149.02446691 349.12594911 -142.42948771 327.12219131 C-139.32982774 316.78067828 -136.22947918 306.43937172 -133.1286912 296.09819686 C-132.79081583 294.97137496 -132.45294046 293.84455307 -132.10482645 292.68358505 C-119.61786499 251.04172846 -107.07193565 209.41779124 -94.49179983 167.80399215 C-92.96240733 162.74447664 -91.43411733 157.68463403 -89.90858316 152.6239537 C-89.32231968 150.6794851 -88.7360214 148.73502698 -88.14968729 146.79057968 C-87.86405578 145.84329498 -87.57842426 144.89601028 -87.28413725 143.92001998 C-85.53434165 138.12313207 -83.77082408 132.33060514 -81.99710608 126.54099357 C-80.8535709 122.80500203 -79.71625727 119.06713287 -78.57990313 115.32895172 C-78.04881874 113.587716 -77.51479457 111.84737379 -76.97760439 110.10801208 C-76.2441403 107.73245478 -75.52087954 105.35401249 -74.79983377 102.97466171 C-74.58404232 102.28526378 -74.36825087 101.59586586 -74.14592028 100.88557708 C-72.09710336 94.04975261 -72.20850988 89.59628549 -75.3240037 83.19975936 C-75.88047586 82.03686386 -76.43694803 80.87396835 -77.01028299 79.67583358 C-77.30575022 79.0705986 -77.60121744 78.46536361 -77.90563822 77.84178817 C-79.43364493 74.70608917 -80.91948449 71.55058479 -82.40603495 68.39507186 C-82.69688471 67.77909133 -82.98773447 67.1631108 -83.28739786 66.5284642 C-95.70397919 40.09342011 -95.70397919 40.09342011 -93.6911912 26.34819686 C-90.25558926 18.38384691 -81.86750959 15.10938781 -74.23953104 12.04668319 C-67.70858684 9.54398427 -61.06569702 7.48607892 -54.3161912 5.66069686 C-53.62340067 5.47047958 -52.93061014 5.28026229 -52.21682596 5.08428085 C-49.71957413 4.44068815 -47.21222403 3.8923324 -44.6911912 3.34819686 C-43.5529723 3.09769419 -42.4147534 2.84719152 -41.24204302 2.58909786 C-27.54456654 -0.17237119 -13.92458833 -0.06463651 0 0 Z " fill="#FEFEFE" transform="translate(1713.6911911964417,200.6518031358719)"/>
<path d="M0 0 C5.47801243 1.65323377 10.51625981 4.02493688 15.6875 6.4375 C45.74037919 20.22474947 77.05986373 32.31468565 109 41 C110.43545166 41.39082764 110.43545166 41.39082764 111.89990234 41.78955078 C146.56832831 51.14072358 181.50862269 58.8583309 216.9375 64.6875 C218.30308548 64.91362473 218.30308548 64.91362473 219.69625854 65.14431763 C237.01966212 68.0003007 254.34957503 69.87412705 271.82470703 71.50878906 C276.57230949 71.95511759 281.31551429 72.43798718 286.05859375 72.9296875 C330.03114509 77.43599741 374.15893192 79.84170759 418.3125 81.6875 C419.40342831 81.73352293 419.40342831 81.73352293 420.51639557 81.78047562 C421.23006035 81.8105508 421.94372513 81.84062599 422.67901611 81.87161255 C423.29783283 81.89772676 423.91664955 81.92384098 424.55421829 81.95074654 C433.24410405 82.30830799 441.93492191 82.62221774 450.62707423 82.91854569 C452.91780472 82.99717852 455.20844556 83.07811443 457.49909174 83.1591599 C484.37496109 84.09191983 511.1307935 83.8485214 538.00774968 83.09030199 C543.68155083 82.93259848 549.35567236 82.78723301 555.02975464 82.64006042 C566.08965851 82.35120802 577.14922551 82.05103696 588.20870128 81.74627261 C597.22645601 81.49789229 606.24430577 81.25328194 615.26223183 81.01120377 C616.55707251 80.97643219 617.85191319 80.94166062 619.18599147 80.90583537 C621.81858819 80.83514011 624.45118496 80.76444624 627.08378176 80.69375373 C644.70666042 80.2201224 662.3294242 79.74243085 679.95196056 79.25622368 C680.9804932 79.22784802 680.9804932 79.22784802 682.02980427 79.19889911 C685.50296853 79.10306618 688.97613163 79.00719151 692.44929429 78.91130064 C693.13873046 78.89226608 693.82816664 78.87323151 694.53849482 78.85362013 C695.93269813 78.81512705 697.32690138 78.77663189 698.72110457 78.73813466 C720.35807437 78.14079011 741.99538932 77.55783074 763.63305664 76.98632812 C788.10351223 76.3399818 812.57362283 75.68217929 837.04334337 75.00854123 C849.93865753 74.65375879 862.83405398 74.30366145 875.72984886 73.96676254 C952.08018085 71.99899174 952.08018085 71.99899174 1028.21886277 66.27680063 C1032.71673508 65.82913703 1037.21712033 65.40861621 1041.717453 64.98654175 C1043.19746566 64.84663868 1044.6774729 64.7066783 1046.15747356 64.56664848 C1073.04380027 62.03213561 1100.52486114 59.98283935 1123.02734375 77.5859375 C1132.56069875 86.13883805 1136.34243945 99.32385387 1137.28125 111.7109375 C1137.50000468 120.84394549 1136.34978995 129.54734691 1134.75390625 138.52734375 C1134.21836617 141.64349398 1133.69738136 144.75936742 1133.2578125 147.890625 C1133.09949951 148.9719873 1133.09949951 148.9719873 1132.93798828 150.07519531 C1132.81569297 152.35861669 1132.81569297 152.35861669 1135.3125 154.8125 C1149.93812709 164.50739176 1168.42815028 164.52716451 1185.3125 164.375 C1186.23574066 164.37034729 1187.15898132 164.36569458 1188.11019897 164.36090088 C1203.58111375 164.26987294 1218.69395169 163.34780612 1234 161 C1235.45696607 160.78276555 1236.91400139 160.56599517 1238.37109375 160.34960938 C1265.87151821 156.2386507 1292.25343059 151.86380138 1317.59423828 140.00878906 C1361.40188484 119.52603466 1408.58990279 112.9418556 1455 129 C1464.21127332 132.39450422 1473.06961588 136.52192688 1481.88623047 140.82275391 C1496.99883658 148.1763975 1511.12113981 152.88130161 1527.72924805 155.53930664 C1549.78852941 159.16292017 1567.12196038 170.38995678 1580.83984375 187.8671875 C1594.11091516 207.11384079 1601.33494145 229.39215148 1597.3515625 252.8125 C1593.22818626 267.19145306 1585.66831522 280.46440882 1572.4453125 287.9453125 C1569.01973868 289.42279641 1566.66933986 289.47860955 1563 289 C1562.88575184 282.37360667 1563.31038418 275.92719663 1563.9765625 269.33203125 C1564.00150664 265.78580593 1563.30255262 263.27626785 1562 260 C1554.18775045 258.11833989 1546.5046211 257.75489097 1538.5 257.6875 C1537.07772095 257.66139648 1537.07772095 257.66139648 1535.62670898 257.63476562 C1524.03554557 257.64272181 1514.07034149 261.04313068 1503.625 265.8125 C1502.56627686 266.28824463 1501.50755371 266.76398926 1500.41674805 267.25415039 C1496.9388505 268.82395937 1493.46924503 270.4111699 1490 272 C1488.75980911 272.56327983 1487.51940893 273.12609909 1486.27880859 273.68847656 C1469.82765774 281.15421407 1453.66759117 288.97622738 1438 298 C1437.41963989 298.3302417 1436.83927979 298.6604834 1436.24133301 299.00073242 C1423.74715526 306.12227829 1411.80203757 313.97305023 1399.875 322 C1398.05628564 323.21919176 1396.23727617 324.4379434 1394.41796875 325.65625 C1390.90345543 328.01048399 1387.3906978 330.36729962 1383.87939453 332.72631836 C1378.85114908 336.10287057 1373.81190447 339.46276919 1368.76486206 342.81115723 C1355.77682196 351.44561522 1344.01943611 361.23900621 1332.51171875 371.734375 C1331.10832432 373.00026733 1329.69822522 374.2591553 1328.2644043 375.49047852 C1322.74392518 380.23793925 1317.57242544 385.27798593 1312.4375 390.4375 C1311.22030273 391.64889648 1311.22030273 391.64889648 1309.97851562 392.88476562 C1306.29641759 396.57280732 1302.70876218 400.27847849 1299.328125 404.24609375 C1296.27349924 407.7979533 1292.95787294 410.7009711 1289.3125 413.625 C1282.50492341 419.26835062 1276.9333367 425.57517495 1271.33886719 432.39404297 C1269.39840399 434.72160805 1267.35910728 436.95322804 1265.3125 439.1875 C1261.51492751 443.37369301 1257.92934056 447.70019014 1254.375 452.09375 C1251.83334727 455.20393032 1249.2339534 458.25892214 1246.625 461.3125 C1242.37814378 466.29871142 1238.29257786 471.39056218 1234.26611328 476.55566406 C1226.35662198 486.69031053 1218.21476987 496.6365197 1209.87841797 506.42260742 C1207.08350449 509.70609582 1204.33900588 513.02443637 1201.625 516.375 C1192.94752989 527.02039637 1183.84367417 537.29058719 1174.50170898 547.35473633 C1173.399945 548.56182257 1172.31295572 549.78243807 1171.23461914 551.01049805 C1164.48809557 558.65623809 1157.3072727 565.84455055 1150.08862305 573.04174805 C1147.93487478 575.19011866 1145.78654774 577.34380694 1143.63867188 579.49804688 C1142.24771646 580.88834168 1140.85645097 582.27832636 1139.46484375 583.66796875 C1138.83440659 584.30043015 1138.20396942 584.93289154 1137.5544281 585.58451843 C1133.19650289 589.91996142 1128.65469184 593.98715524 1124 598 C1122.7380407 599.11544467 1121.47741817 600.23240544 1120.21875 601.3515625 C1118.979321 602.44288363 1117.73973833 603.53403027 1116.5 604.625 C1115.88769531 605.1715625 1115.27539062 605.718125 1114.64453125 606.28125 C1110.91677038 609.54792514 1107.12793268 612.27243527 1102.88427734 614.82910156 C1100.12003704 616.54681295 1097.61037765 618.54129773 1095.0625 620.5625 C1062.66928852 645.8424345 1026.37962795 667.24659556 987.62011719 681.06005859 C984.93774735 682.02233253 982.26996308 683.01923982 979.6015625 684.01953125 C965.2959724 689.28756574 950.8047717 692.95529471 935.953125 696.31567383 C933.62943172 696.85414211 931.33560647 697.43970451 929.03515625 698.06640625 C923.08098932 699.57438679 916.95259874 700.24027342 910.875 701.0625 C909.64523437 701.23587891 908.41546875 701.40925781 907.1484375 701.58789062 C893.57595937 703.44840365 880.13301999 704.21155897 866.4375 704.1875 C865.74001648 704.18656342 865.04253296 704.18562683 864.32391357 704.18466187 C809.23881596 704.02540196 754.38098738 687.69844624 714 649 C713.1440625 648.20722656 712.288125 647.41445312 711.40625 646.59765625 C705.77766581 641.21977049 700.87027511 635.53569823 696.125 629.375 C695.58963623 628.68277344 695.05427246 627.99054687 694.50268555 627.27734375 C685 614.6686699 685 614.6686699 685 608 C687.6875 605.625 687.6875 605.625 691 604 C695.46737653 605.22256948 699.15825621 607.93335958 703 610.4375 C725.68894539 624.82780616 749.54932332 634.9867588 776 640 C776.85029785 640.16371094 777.7005957 640.32742188 778.57666016 640.49609375 C853.97002189 654.20655292 942.27921991 633.11218231 1005.03808594 590.36425781 C1013.36669851 584.57278356 1021.09998624 578.19954519 1028.52734375 571.28515625 C1030.59860099 569.37096117 1032.70914701 567.55412389 1034.875 565.75 C1045.54701566 556.43108244 1054.49992613 545.2755449 1063 534 C1063.44553223 533.41669922 1063.89106445 532.83339844 1064.35009766 532.23242188 C1086.61709537 503.03453067 1103.85155157 470.18866911 1117.5 436.1875 C1117.75597961 435.55115631 1118.01195923 434.91481262 1118.2756958 434.25918579 C1121.21067121 426.93053675 1123.91214187 419.61693812 1126 412 C1124.71416016 413.485 1124.71416016 413.485 1123.40234375 415 C1110.4413234 429.96508684 1110.4413234 429.96508684 1106 435 C1105.38769531 435.70511719 1104.77539062 436.41023438 1104.14453125 437.13671875 C1093.68148426 449.01316046 1082.530568 460.30922078 1070 470 C1068.91241892 470.87556651 1067.82657257 471.75329085 1066.7421875 472.6328125 C1018.13012999 511.85562526 958.50529297 528.27253387 896.61499023 522.17578125 C882.92864151 520.61102621 869.45031736 517.9395311 856 515 C856 514.34 856 513.68 856 513 C858.19186808 511.20806259 860.39683777 509.53341023 862.6875 507.875 C864.16481218 506.78747598 865.6413352 505.69887936 867.1171875 504.609375 C867.90963867 504.02607422 868.70208984 503.44277344 869.51855469 502.84179688 C873.81900881 499.6498817 878.06165969 496.38251004 882.3125 493.125 C889.08952901 487.94078864 895.91915167 482.84078017 902.8125 477.8125 C910.14337647 472.45444721 917.2283067 466.85613757 924.234375 461.08203125 C927.79216095 458.15278748 931.41954576 455.32200681 935.0625 452.5 C942.61792503 446.61114968 949.84539187 440.36708935 957 434 C957.79325684 433.29568848 957.79325684 433.29568848 958.60253906 432.57714844 C972.14483975 420.48673449 985.96347296 407.83895145 997.08984375 393.4609375 C999.19066188 390.75436199 1001.4350395 388.20647158 1003.6875 385.625 C1011.67609185 376.08901162 1019.63081332 365.25094489 1025 354 C1022.12320388 355.95570452 1019.248618 357.91462877 1016.375 359.875 C1015.50053223 360.47143311 1014.62606445 361.06786621 1013.72509766 361.68237305 C1008.88802236 364.99150735 1004.10554354 368.35329004 999.375 371.8125 C974.95334742 389.50121813 948.41979697 404.53940065 922 419 C921.12906708 419.47729553 921.12906708 419.47729553 920.24053955 419.9642334 C911.14957412 424.93043972 901.95553673 429.50983943 892.5 433.75 C891.84513611 434.04481262 891.19027222 434.33962524 890.51556396 434.64337158 C855.51567683 450.35454397 819.4434329 462.8816012 781.625 469.75 C780.53340576 469.94875732 779.44181152 470.14751465 778.31713867 470.35229492 C762.37059142 473.12307728 746.74985516 474.33212374 730.56958008 474.26074219 C727.70046681 474.25004833 724.83198479 474.26069577 721.96289062 474.2734375 C684.50216411 474.30305942 645.87909728 467.85324408 614 447 C613.67 446.34 613.34 445.68 613 445 C620.85223843 442.32825396 628.72079292 439.74442568 636.66015625 437.34375 C637.40970581 437.11705627 638.15925537 436.89036255 638.93151855 436.65679932 C640.49706789 436.1835998 642.06264045 435.71047711 643.62823486 435.23742676 C664.25966808 428.98742109 684.6765399 422.18503546 705 415 C706.06863281 414.62423828 707.13726563 414.24847656 708.23828125 413.86132812 C723.3264486 408.50847207 737.75154773 401.75445417 752.18756104 394.8638916 C753.97311242 394.01281586 755.76071229 393.16604215 757.54833984 392.31933594 C783.31709326 380.10763753 808.799673 367.31687668 833.53125 353.109375 C839.31597041 349.79486396 845.18573858 346.64747544 851.0625 343.5 C861.63941263 337.81447136 871.99674078 331.80966985 882.2890625 325.62597656 C885.104358 323.93740776 887.92648696 322.26072454 890.75 320.5859375 C892.58350299 319.49507677 894.41684259 318.40394137 896.25 317.3125 C897.10239258 316.80710693 897.95478516 316.30171387 898.83300781 315.78100586 C899.61514648 315.31315674 900.39728516 314.84530762 901.203125 314.36328125 C901.89051758 313.95376221 902.57791016 313.54424316 903.28613281 313.12231445 C905.15293637 311.98318343 905.15293637 311.98318343 907 310 C906.47938995 310.18410934 905.95877991 310.36821869 905.4223938 310.5579071 C861.3931238 326.11393816 817.19738961 340.23256217 772 352 C770.79241028 352.31454132 770.79241028 352.31454132 769.5604248 352.63543701 C714.60409135 366.89833932 658.61751513 376.59766332 602 381 C600.68483398 381.103125 599.36966797 381.20625 598.01464844 381.3125 C584.69590992 382.2657873 571.34651022 382.24245013 558 382.25 C556.76144257 382.25100708 555.52288513 382.25201416 554.24679565 382.25305176 C534.64550182 382.24229702 515.43905536 381.58082807 496 379 C494.92588867 378.86609863 493.85177734 378.73219727 492.74511719 378.59423828 C433.16845857 370.9975237 375.78163322 349.1630577 335.21484375 303.62890625 C334 302 334 302 334 300 C334.673797 299.99413376 335.34759399 299.98826752 336.04180908 299.98222351 C436.45453112 299.07275271 535.26366165 289.63547359 690.42156982 255.63745117 C693.00062905 254.99984448 695.58057544 254.36592833 698.16064453 253.73242188 C736.11858758 244.38878017 773.63466356 233.46956717 811 222 C810.20473404 222.08912155 809.40946808 222.1782431 808.59010315 222.27006531 C772.93314647 226.25645824 737.27714047 230.1318779 701.5 232.875 C700.26186554 232.97187103 699.02373108 233.06874207 697.74807739 233.16854858 C658.9594375 236.17480497 620.23142498 237.38530242 581.33226013 237.31805801 C578.00352938 237.31239976 574.67480375 237.30959089 571.34606934 237.30697632 C539.14003118 237.2702192 507.09667369 236.89185263 475 234 C472.94955506 233.82116532 470.89909901 233.64245799 468.84863281 233.46386719 C400.41251188 227.4149338 331.65395779 216.67213601 266 196 C265.34187317 195.79330688 264.68374634 195.58661377 264.00567627 195.37365723 C234.84340542 186.19463859 206.59123591 175.21526505 179 162 C178.03465332 161.54189941 177.06930664 161.08379883 176.07470703 160.61181641 C139.68303556 143.2574589 104.79449919 121.08152234 74 95 C72.99839844 94.18273437 71.99679687 93.36546875 70.96484375 92.5234375 C63.31948708 86.21875198 56.21365134 79.42293791 49.1875 72.4375 C48.31625488 71.57543945 47.44500977 70.71337891 46.54736328 69.82519531 C38.96813886 62.20992741 31.13428836 54.02229849 25.65234375 44.7109375 C24.3444129 42.56506513 23.00348134 40.60871152 21.50390625 38.6015625 C0 9.66843197 0 9.66843197 0 0 Z " fill="#FBB215" transform="translate(365,742)"/>
</svg>
